<svg xmlns="http://www.w3.org/2000/svg" width="245" viewBox="0 0 183.75 363.75" height="485" version="1.0"><defs><clipPath id="a"><path d="M0 .121h183.5V222H0Zm0 0"/></clipPath><clipPath id="b"><path d="M0 138h183.5v225.379H0Zm0 0"/></clipPath></defs><g clip-path="url(#a)"><path d="m62.803 131.136 79.277 42.336 40.3-23.938-2.702-95.671L98.849 8.917 18.541 56.624l.516 92.653 40.5 22.617-.516-92.653 40.008-23.765 40.617 22.156.203 46.555-37.059-16.817Zm0 0" fill="#5e17eb"/></g><g clip-path="url(#b)"><path d="m132.7 229.936-77.425-42.54-39.586 24.465 2.313 92.915 82.066 43.636 79.465-49.105-2.602-92.739-40.89-21.906 2.316 92.918-39.59 24.461-40.89-21.906-1.301-46.367 36.25 20.808Zm0 0" fill="#5e17eb"/></g></svg>