<svg xmlns="http://www.w3.org/2000/svg" width="500" viewBox="0 0 375 187.5" height="250" version="1.0"><path d="m209.472 77.024 29.008 15.492 14.75-8.762-.989-35.008-29.578-16.449-29.39 17.457.19 33.906 14.821 8.278-.191-33.907 14.64-8.695 14.864 8.105.074 17.04-13.559-6.157Zm0 0" fill="#4e4feb"/><path d="M50.377 65.372v67.813c1.258.168 2.82.25 4.688.25 6 0 11.383-1.52 16.156-4.563 4.781-3.039 8.734-7.223 11.86-12.547l4.312 1.016c-3.469 6.512-8.184 11.5-14.14 14.969-5.962 3.46-12.657 5.187-20.094 5.187-9.637 0-17.559-1.816-23.766-5.453-6.211-3.633-10.711-8.195-13.5-13.687-2.793-5.489-4.188-11.149-4.188-16.985 0-5.914 1.477-11.64 4.438-17.172 2.957-5.539 7.351-10.062 13.187-13.562 5.832-3.508 12.848-5.266 21.047-5.266Zm22.313 0c3.969 0 7.344 1.418 10.125 4.25 2.789 2.824 4.187 6.18 4.187 10.063 0 3.98-1.398 7.367-4.187 10.156-2.781 2.781-6.156 4.172-10.125 4.172-3.98 0-7.367-1.39-10.156-4.172-2.782-2.79-4.172-6.176-4.172-10.156 0-3.97 1.41-7.344 4.234-10.125 2.832-2.79 6.195-4.188 10.094-4.188Zm63.988-24.844v96.97H98.006v-96.97Zm17.484 24.844c10.063.336 17.477 2.852 22.25 7.547 4.782 4.688 7.172 10.75 7.172 18.188v46.39h-38.672V65.872c3.801-.332 6.883-.5 9.25-.5Zm142.941-24.844V107.7l26.25-22.437 34.734 52.234h-44.75l-16.234-27.515v27.515h-38.657V40.528Zm26.25 44.485-12.172-19.14h34.344Zm0 0" fill="#2a2929"/><path d="M315.509 166.172c.633 0 1.297-.414 1.297-1.27 0-.887-.664-1.3-1.297-1.3-.664 0-1.3.413-1.3 1.3 0 .856.636 1.27 1.3 1.27Zm15.571-20.075v6.352c0 1.16.027 2.266.054 3.313-.996-1.434-2.734-2.32-4.723-2.32-3.59 0-6.128 2.679-6.128 6.296 0 3.727 2.511 6.434 6.128 6.434 2.125 0 3.813-.942 4.805-2.457l.25 2.18h1.297v-19.798Zm-4.56 18.473c-2.702 0-4.554-1.988-4.554-4.777 0-2.79 1.852-4.778 4.555-4.778 2.762 0 4.613 2.016 4.613 4.778 0 2.762-1.797 4.777-4.613 4.777Zm15.82-11.183c-3.617 0-6.156 2.843-6.156 6.378 0 3.782 2.597 6.434 6.297 6.434 1.93 0 3.421-.664 4.664-1.852l-.965-1.214c-.942.968-2.016 1.492-3.727 1.492-2.293 0-4.281-1.547-4.558-4.14h9.773a8.97 8.97 0 0 0 .086-1.188c0-3.563-2.016-5.91-5.414-5.91Zm-.027 1.574c2.238 0 3.726 1.437 3.78 4.031h-8.144c.332-2.43 2.102-4.031 4.364-4.031Zm17.117-1.27-3.508 7.813a14.622 14.622 0 0 0-.66 1.738 14.624 14.624 0 0 0-.665-1.738l-3.535-7.813h-1.82v.055l5.715 12.285h.605l5.688-12.285v-.055ZM232.317 113.98l-28.395-15.602-14.515 8.973.847 34.074 30.094 16 29.14-18.004-.952-34.012-14.997-8.031.852 34.074-14.52 8.969-14.996-8.031-.476-17.008 13.293 7.633Zm0 0" fill="#4e4feb"/></svg>